<mxfile host="Electron" modified="2024-01-29T16:07:58.504Z" agent="Mozilla/5.0 (Windows NT 10.0; Win64; x64) AppleWebKit/537.36 (KHTML, like Gecko) draw.io/22.1.21 Chrome/120.0.6099.109 Electron/28.1.0 Safari/537.36" etag="cjoL2tH9tdyAvMUVoyyY" version="22.1.21" type="device">
  <diagram id="nn1lJPpCgA0VzU7Jnnf6" name="ページ1">
    <mxGraphModel dx="1434" dy="836" grid="1" gridSize="10" guides="1" tooltips="1" connect="1" arrows="1" fold="1" page="1" pageScale="1" pageWidth="1169" pageHeight="827" math="0" shadow="0">
      <root>
        <mxCell id="0" />
        <mxCell id="1" parent="0" />
        <mxCell id="WglootA35rn0hBsXgaP3-34" style="edgeStyle=orthogonalEdgeStyle;shape=connector;rounded=0;orthogonalLoop=1;jettySize=auto;html=1;exitX=1;exitY=1;exitDx=0;exitDy=0;exitPerimeter=0;entryX=1.054;entryY=0.734;entryDx=0;entryDy=0;entryPerimeter=0;labelBackgroundColor=default;strokeColor=default;fontFamily=Times New Roman;fontSize=22;fontColor=default;endArrow=none;endFill=0;" parent="1" target="WglootA35rn0hBsXgaP3-33" edge="1">
          <mxGeometry relative="1" as="geometry">
            <mxPoint x="360" y="352.8571428571429" as="sourcePoint" />
          </mxGeometry>
        </mxCell>
        <mxCell id="WglootA35rn0hBsXgaP3-131" style="edgeStyle=orthogonalEdgeStyle;shape=connector;rounded=0;orthogonalLoop=1;jettySize=auto;html=1;exitX=1;exitY=0;exitDx=0;exitDy=0;exitPerimeter=0;entryX=0.417;entryY=-0.017;entryDx=0;entryDy=0;entryPerimeter=0;labelBackgroundColor=default;strokeColor=default;fontFamily=Times New Roman;fontSize=22;fontColor=default;endArrow=none;endFill=0;" parent="1" target="WglootA35rn0hBsXgaP3-130" edge="1">
          <mxGeometry relative="1" as="geometry">
            <mxPoint x="360" y="447.1428571428572" as="sourcePoint" />
          </mxGeometry>
        </mxCell>
        <mxCell id="WglootA35rn0hBsXgaP3-19" style="edgeStyle=orthogonalEdgeStyle;shape=connector;rounded=0;orthogonalLoop=1;jettySize=auto;html=1;exitX=1;exitY=0;exitDx=0;exitDy=0;exitPerimeter=0;entryX=-0.008;entryY=0.354;entryDx=0;entryDy=0;entryPerimeter=0;labelBackgroundColor=default;strokeColor=default;fontFamily=Times New Roman;fontSize=22;fontColor=default;endArrow=none;endFill=0;" parent="1" edge="1">
          <mxGeometry relative="1" as="geometry">
            <mxPoint x="240" y="232.8571428571429" as="sourcePoint" />
            <mxPoint x="360" y="200" as="targetPoint" />
            <Array as="points">
              <mxPoint x="240" y="200" />
            </Array>
          </mxGeometry>
        </mxCell>
        <mxCell id="WglootA35rn0hBsXgaP3-38" style="edgeStyle=orthogonalEdgeStyle;shape=connector;rounded=0;orthogonalLoop=1;jettySize=auto;html=1;exitX=1;exitY=1;exitDx=0;exitDy=0;exitPerimeter=0;entryX=0.537;entryY=0;entryDx=0;entryDy=0;entryPerimeter=0;labelBackgroundColor=default;strokeColor=default;fontFamily=Times New Roman;fontSize=22;fontColor=default;endArrow=none;endFill=0;" parent="1" target="WglootA35rn0hBsXgaP3-37" edge="1">
          <mxGeometry relative="1" as="geometry">
            <mxPoint x="240" y="327.1428571428571" as="sourcePoint" />
          </mxGeometry>
        </mxCell>
        <mxCell id="WglootA35rn0hBsXgaP3-22" style="edgeStyle=orthogonalEdgeStyle;shape=connector;rounded=0;orthogonalLoop=1;jettySize=auto;html=1;exitX=1;exitY=0;exitDx=0;exitDy=0;exitPerimeter=0;entryX=-0.019;entryY=0.398;entryDx=0;entryDy=0;entryPerimeter=0;labelBackgroundColor=default;strokeColor=default;fontFamily=Times New Roman;fontSize=22;fontColor=default;endArrow=none;endFill=0;" parent="1" target="WglootA35rn0hBsXgaP3-17" edge="1">
          <mxGeometry relative="1" as="geometry">
            <mxPoint x="240.0000000000001" y="567.1428571428571" as="sourcePoint" />
            <Array as="points">
              <mxPoint x="240" y="600" />
            </Array>
          </mxGeometry>
        </mxCell>
        <mxCell id="WglootA35rn0hBsXgaP3-39" style="edgeStyle=orthogonalEdgeStyle;shape=connector;rounded=0;orthogonalLoop=1;jettySize=auto;html=1;exitX=1;exitY=1;exitDx=0;exitDy=0;exitPerimeter=0;entryX=0.43;entryY=1.02;entryDx=0;entryDy=0;entryPerimeter=0;labelBackgroundColor=default;strokeColor=default;fontFamily=Times New Roman;fontSize=22;fontColor=default;endArrow=none;endFill=0;" parent="1" target="WglootA35rn0hBsXgaP3-37" edge="1">
          <mxGeometry relative="1" as="geometry">
            <mxPoint x="240.0000000000001" y="472.8571428571428" as="sourcePoint" />
          </mxGeometry>
        </mxCell>
        <mxCell id="WglootA35rn0hBsXgaP3-20" style="edgeStyle=orthogonalEdgeStyle;shape=connector;rounded=0;orthogonalLoop=1;jettySize=auto;html=1;exitX=1;exitY=1;exitDx=0;exitDy=0;exitPerimeter=0;entryX=0.525;entryY=1.004;entryDx=0;entryDy=0;entryPerimeter=0;labelBackgroundColor=default;strokeColor=default;fontFamily=Times New Roman;fontSize=22;fontColor=default;endArrow=none;endFill=0;" parent="1" edge="1">
          <mxGeometry relative="1" as="geometry">
            <mxPoint x="360" y="232.8571428571429" as="sourcePoint" />
            <mxPoint x="360" y="200" as="targetPoint" />
          </mxGeometry>
        </mxCell>
        <mxCell id="WglootA35rn0hBsXgaP3-32" style="edgeStyle=orthogonalEdgeStyle;shape=connector;rounded=0;orthogonalLoop=1;jettySize=auto;html=1;exitX=0;exitY=0.5;exitDx=0;exitDy=0;exitPerimeter=0;entryX=0.55;entryY=0.027;entryDx=0;entryDy=0;entryPerimeter=0;labelBackgroundColor=default;strokeColor=default;fontFamily=Times New Roman;fontSize=22;fontColor=default;endArrow=none;endFill=0;" parent="1" target="WglootA35rn0hBsXgaP3-28" edge="1">
          <mxGeometry relative="1" as="geometry">
            <mxPoint x="420" y="280" as="sourcePoint" />
            <Array as="points">
              <mxPoint x="440" y="280" />
            </Array>
          </mxGeometry>
        </mxCell>
        <mxCell id="WglootA35rn0hBsXgaP3-127" style="edgeStyle=orthogonalEdgeStyle;shape=connector;rounded=0;orthogonalLoop=1;jettySize=auto;html=1;exitX=1;exitY=0;exitDx=0;exitDy=0;exitPerimeter=0;entryX=0.592;entryY=-0.029;entryDx=0;entryDy=0;entryPerimeter=0;labelBackgroundColor=default;strokeColor=default;fontFamily=Times New Roman;fontSize=22;fontColor=default;endArrow=none;endFill=0;" parent="1" target="WglootA35rn0hBsXgaP3-126" edge="1">
          <mxGeometry relative="1" as="geometry">
            <mxPoint x="360" y="327.1428571428572" as="sourcePoint" />
            <Array as="points">
              <mxPoint x="320" y="327" />
            </Array>
          </mxGeometry>
        </mxCell>
        <mxCell id="WglootA35rn0hBsXgaP3-24" style="edgeStyle=orthogonalEdgeStyle;shape=connector;rounded=0;orthogonalLoop=1;jettySize=auto;html=1;exitX=1;exitY=1;exitDx=0;exitDy=0;exitPerimeter=0;labelBackgroundColor=default;strokeColor=default;fontFamily=Times New Roman;fontSize=22;fontColor=default;endArrow=none;endFill=0;" parent="1" target="WglootA35rn0hBsXgaP3-17" edge="1">
          <mxGeometry relative="1" as="geometry">
            <mxPoint x="360" y="567.1428571428571" as="sourcePoint" />
          </mxGeometry>
        </mxCell>
        <mxCell id="WglootA35rn0hBsXgaP3-31" style="edgeStyle=orthogonalEdgeStyle;shape=connector;rounded=0;orthogonalLoop=1;jettySize=auto;html=1;exitX=0;exitY=0.5;exitDx=0;exitDy=0;exitPerimeter=0;entryX=0.59;entryY=1.036;entryDx=0;entryDy=0;entryPerimeter=0;labelBackgroundColor=default;strokeColor=default;fontFamily=Times New Roman;fontSize=22;fontColor=default;endArrow=none;endFill=0;" parent="1" target="WglootA35rn0hBsXgaP3-28" edge="1">
          <mxGeometry relative="1" as="geometry">
            <mxPoint x="420" y="520.0000000000002" as="sourcePoint" />
            <Array as="points">
              <mxPoint x="440" y="520" />
            </Array>
          </mxGeometry>
        </mxCell>
        <mxCell id="WglootA35rn0hBsXgaP3-132" style="edgeStyle=orthogonalEdgeStyle;shape=connector;rounded=0;orthogonalLoop=1;jettySize=auto;html=1;exitX=1;exitY=0;exitDx=0;exitDy=0;exitPerimeter=0;entryX=-0.01;entryY=0.21;entryDx=0;entryDy=0;entryPerimeter=0;labelBackgroundColor=default;strokeColor=default;fontFamily=Times New Roman;fontSize=22;fontColor=default;endArrow=none;endFill=0;" parent="1" target="WglootA35rn0hBsXgaP3-130" edge="1">
          <mxGeometry relative="1" as="geometry">
            <mxPoint x="360" y="472.8571428571429" as="sourcePoint" />
          </mxGeometry>
        </mxCell>
        <mxCell id="WglootA35rn0hBsXgaP3-26" style="edgeStyle=orthogonalEdgeStyle;shape=connector;rounded=0;orthogonalLoop=1;jettySize=auto;html=1;exitX=0;exitY=0.5;exitDx=0;exitDy=0;exitPerimeter=0;entryX=0.04;entryY=0.54;entryDx=0;entryDy=0;entryPerimeter=0;labelBackgroundColor=default;strokeColor=default;fontFamily=Times New Roman;fontSize=22;fontColor=default;endArrow=none;endFill=0;" parent="1" target="WglootA35rn0hBsXgaP3-25" edge="1">
          <mxGeometry relative="1" as="geometry">
            <mxPoint x="420" y="400" as="sourcePoint" />
          </mxGeometry>
        </mxCell>
        <mxCell id="WglootA35rn0hBsXgaP3-21" style="edgeStyle=orthogonalEdgeStyle;shape=connector;rounded=0;orthogonalLoop=1;jettySize=auto;html=1;exitX=1;exitY=0;exitDx=0;exitDy=0;exitPerimeter=0;entryX=1.025;entryY=0.454;entryDx=0;entryDy=0;entryPerimeter=0;labelBackgroundColor=default;strokeColor=default;fontFamily=Times New Roman;fontSize=22;fontColor=default;endArrow=none;endFill=0;" parent="1" edge="1">
          <mxGeometry relative="1" as="geometry">
            <mxPoint x="480" y="232.8571428571429" as="sourcePoint" />
            <mxPoint x="360" y="200" as="targetPoint" />
            <Array as="points">
              <mxPoint x="480" y="200" />
            </Array>
          </mxGeometry>
        </mxCell>
        <mxCell id="WglootA35rn0hBsXgaP3-23" style="edgeStyle=orthogonalEdgeStyle;shape=connector;rounded=0;orthogonalLoop=1;jettySize=auto;html=1;exitX=1;exitY=0;exitDx=0;exitDy=0;exitPerimeter=0;entryX=1.01;entryY=0.531;entryDx=0;entryDy=0;entryPerimeter=0;labelBackgroundColor=default;strokeColor=default;fontFamily=Times New Roman;fontSize=22;fontColor=default;endArrow=none;endFill=0;" parent="1" target="WglootA35rn0hBsXgaP3-17" edge="1">
          <mxGeometry relative="1" as="geometry">
            <mxPoint x="480" y="567.1428571428571" as="sourcePoint" />
            <Array as="points">
              <mxPoint x="480" y="600" />
            </Array>
          </mxGeometry>
        </mxCell>
        <mxCell id="WglootA35rn0hBsXgaP3-13" value="v&lt;sub style=&quot;font-size: 22px;&quot;&gt;in&lt;/sub&gt;&lt;span style=&quot;font-size: 22px;&quot;&gt;-&lt;/span&gt;" style="rounded=0;whiteSpace=wrap;html=1;fontFamily=Times New Roman;fontSize=22;" parent="1" vertex="1">
          <mxGeometry x="40" y="480" width="80" height="80" as="geometry" />
        </mxCell>
        <mxCell id="WglootA35rn0hBsXgaP3-14" value="v&lt;sub&gt;in&lt;/sub&gt;+" style="rounded=0;whiteSpace=wrap;html=1;fontSize=22;fontFamily=Times New Roman;" parent="1" vertex="1">
          <mxGeometry x="40" y="240" width="80" height="80" as="geometry" />
        </mxCell>
        <mxCell id="WglootA35rn0hBsXgaP3-17" value="" style="shape=waypoint;sketch=0;fillStyle=solid;size=6;pointerEvents=1;points=[];fillColor=none;resizable=0;rotatable=0;perimeter=centerPerimeter;snapToPoint=1;fontFamily=Helvetica;fontSize=11;fontColor=default;rounded=0;strokeColor=default;html=1;" parent="1" vertex="1">
          <mxGeometry x="340" y="580" width="40" height="40" as="geometry" />
        </mxCell>
        <mxCell id="WglootA35rn0hBsXgaP3-18" value="" style="shape=waypoint;sketch=0;fillStyle=solid;size=6;pointerEvents=1;points=[];fillColor=none;resizable=0;rotatable=0;perimeter=centerPerimeter;snapToPoint=1;fontFamily=Helvetica;fontSize=11;fontColor=default;rounded=0;strokeColor=default;html=1;" parent="1" vertex="1">
          <mxGeometry x="340" y="180" width="40" height="40" as="geometry" />
        </mxCell>
        <mxCell id="WglootA35rn0hBsXgaP3-25" value="" style="shape=waypoint;sketch=0;fillStyle=solid;size=6;pointerEvents=1;points=[];fillColor=none;resizable=0;rotatable=0;perimeter=centerPerimeter;snapToPoint=1;fontFamily=Helvetica;fontSize=11;fontColor=default;rounded=0;strokeColor=default;html=1;" parent="1" vertex="1">
          <mxGeometry x="400" y="380" width="40" height="40" as="geometry" />
        </mxCell>
        <mxCell id="WglootA35rn0hBsXgaP3-29" style="edgeStyle=orthogonalEdgeStyle;shape=connector;rounded=0;orthogonalLoop=1;jettySize=auto;html=1;entryX=1.043;entryY=0.54;entryDx=0;entryDy=0;entryPerimeter=0;labelBackgroundColor=default;strokeColor=default;fontFamily=Times New Roman;fontSize=22;fontColor=default;endArrow=none;endFill=0;" parent="1" source="WglootA35rn0hBsXgaP3-28" target="WglootA35rn0hBsXgaP3-25" edge="1">
          <mxGeometry relative="1" as="geometry" />
        </mxCell>
        <mxCell id="WglootA35rn0hBsXgaP3-28" value="" style="shape=waypoint;sketch=0;fillStyle=solid;size=6;pointerEvents=1;points=[];fillColor=none;resizable=0;rotatable=0;perimeter=centerPerimeter;snapToPoint=1;fontFamily=Helvetica;fontSize=11;fontColor=default;rounded=0;strokeColor=default;html=1;" parent="1" vertex="1">
          <mxGeometry x="420" y="380" width="40" height="40" as="geometry" />
        </mxCell>
        <mxCell id="WglootA35rn0hBsXgaP3-35" style="edgeStyle=orthogonalEdgeStyle;shape=connector;rounded=0;orthogonalLoop=1;jettySize=auto;html=1;entryX=0.361;entryY=1.032;entryDx=0;entryDy=0;entryPerimeter=0;labelBackgroundColor=default;strokeColor=default;fontFamily=Times New Roman;fontSize=22;fontColor=default;endArrow=none;endFill=0;" parent="1" source="WglootA35rn0hBsXgaP3-33" target="WglootA35rn0hBsXgaP3-25" edge="1">
          <mxGeometry relative="1" as="geometry" />
        </mxCell>
        <mxCell id="WglootA35rn0hBsXgaP3-36" style="edgeStyle=orthogonalEdgeStyle;shape=connector;rounded=0;orthogonalLoop=1;jettySize=auto;html=1;labelBackgroundColor=default;strokeColor=default;fontFamily=Times New Roman;fontSize=22;fontColor=default;endArrow=none;endFill=0;entryX=0.5;entryY=1;entryDx=0;entryDy=0;" parent="1" source="WglootA35rn0hBsXgaP3-33" target="WglootA35rn0hBsXgaP3-73" edge="1">
          <mxGeometry relative="1" as="geometry">
            <mxPoint x="320" y="350" as="targetPoint" />
          </mxGeometry>
        </mxCell>
        <mxCell id="WglootA35rn0hBsXgaP3-33" value="" style="shape=waypoint;sketch=0;fillStyle=solid;size=6;pointerEvents=1;points=[];fillColor=none;resizable=0;rotatable=0;perimeter=centerPerimeter;snapToPoint=1;fontFamily=Helvetica;fontSize=11;fontColor=default;rounded=0;strokeColor=default;html=1;" parent="1" vertex="1">
          <mxGeometry x="340" y="330" width="40" height="40" as="geometry" />
        </mxCell>
        <mxCell id="WglootA35rn0hBsXgaP3-37" value="" style="shape=waypoint;sketch=0;fillStyle=solid;size=6;pointerEvents=1;points=[];fillColor=none;resizable=0;rotatable=0;perimeter=centerPerimeter;snapToPoint=1;fontFamily=Helvetica;fontSize=11;fontColor=default;rounded=0;strokeColor=default;html=1;" parent="1" vertex="1">
          <mxGeometry x="220" y="380" width="40" height="40" as="geometry" />
        </mxCell>
        <mxCell id="WglootA35rn0hBsXgaP3-41" style="edgeStyle=orthogonalEdgeStyle;shape=connector;rounded=0;orthogonalLoop=1;jettySize=auto;html=1;exitX=1;exitY=0;exitDx=0;exitDy=0;exitPerimeter=0;entryX=-0.003;entryY=0.593;entryDx=0;entryDy=0;entryPerimeter=0;labelBackgroundColor=default;strokeColor=default;fontFamily=Times New Roman;fontSize=22;fontColor=default;endArrow=none;endFill=0;" parent="1" target="WglootA35rn0hBsXgaP3-37" edge="1">
          <mxGeometry relative="1" as="geometry">
            <mxPoint x="179.09090909090907" y="400" as="sourcePoint" />
            <Array as="points">
              <mxPoint x="190" y="400" />
              <mxPoint x="190" y="400" />
            </Array>
          </mxGeometry>
        </mxCell>
        <mxCell id="WglootA35rn0hBsXgaP3-45" style="edgeStyle=orthogonalEdgeStyle;shape=connector;rounded=0;orthogonalLoop=1;jettySize=auto;html=1;exitX=1;exitY=1;exitDx=0;exitDy=0;exitPerimeter=0;entryX=1;entryY=0.5;entryDx=0;entryDy=0;labelBackgroundColor=default;strokeColor=default;fontFamily=Times New Roman;fontSize=22;fontColor=default;endArrow=none;endFill=0;" parent="1" target="WglootA35rn0hBsXgaP3-42" edge="1">
          <mxGeometry relative="1" as="geometry">
            <mxPoint x="140.909090909091" y="400" as="sourcePoint" />
            <Array as="points">
              <mxPoint x="130" y="400" />
              <mxPoint x="130" y="400" />
            </Array>
          </mxGeometry>
        </mxCell>
        <mxCell id="WglootA35rn0hBsXgaP3-42" value="G" style="rounded=0;whiteSpace=wrap;html=1;fontSize=22;fontFamily=Times New Roman;" parent="1" vertex="1">
          <mxGeometry x="40" y="360" width="80" height="80" as="geometry" />
        </mxCell>
        <mxCell id="WglootA35rn0hBsXgaP3-43" value="G" style="rounded=0;whiteSpace=wrap;html=1;fontSize=22;fontFamily=Times New Roman;" parent="1" vertex="1">
          <mxGeometry x="40" y="120" width="80" height="80" as="geometry" />
        </mxCell>
        <mxCell id="WglootA35rn0hBsXgaP3-44" value="G" style="rounded=0;whiteSpace=wrap;html=1;fontSize=22;fontFamily=Times New Roman;" parent="1" vertex="1">
          <mxGeometry x="40" y="600" width="80" height="80" as="geometry" />
        </mxCell>
        <mxCell id="WglootA35rn0hBsXgaP3-48" style="edgeStyle=orthogonalEdgeStyle;shape=connector;rounded=0;orthogonalLoop=1;jettySize=auto;html=1;exitX=0;exitY=0.5;exitDx=0;exitDy=0;exitPerimeter=0;entryX=0;entryY=0.5;entryDx=0;entryDy=0;entryPerimeter=0;labelBackgroundColor=default;strokeColor=default;fontFamily=Times New Roman;fontSize=22;fontColor=default;endArrow=none;endFill=0;" parent="1" edge="1">
          <mxGeometry relative="1" as="geometry">
            <mxPoint x="600" y="300" as="sourcePoint" />
            <mxPoint x="540" y="280" as="targetPoint" />
            <Array as="points">
              <mxPoint x="600" y="280" />
            </Array>
          </mxGeometry>
        </mxCell>
        <mxCell id="WglootA35rn0hBsXgaP3-59" style="edgeStyle=orthogonalEdgeStyle;shape=connector;rounded=0;orthogonalLoop=1;jettySize=auto;html=1;exitX=1;exitY=0;exitDx=0;exitDy=0;exitPerimeter=0;labelBackgroundColor=default;strokeColor=default;fontFamily=Times New Roman;fontSize=22;fontColor=default;endArrow=none;endFill=0;" parent="1" target="WglootA35rn0hBsXgaP3-55" edge="1">
          <mxGeometry relative="1" as="geometry">
            <mxPoint x="619.090909090909" y="360" as="sourcePoint" />
            <Array as="points">
              <mxPoint x="650" y="360" />
              <mxPoint x="650" y="280" />
            </Array>
          </mxGeometry>
        </mxCell>
        <mxCell id="WglootA35rn0hBsXgaP3-49" style="edgeStyle=orthogonalEdgeStyle;shape=connector;rounded=0;orthogonalLoop=1;jettySize=auto;html=1;exitX=0;exitY=0.5;exitDx=0;exitDy=0;exitPerimeter=0;entryX=0;entryY=0.5;entryDx=0;entryDy=0;entryPerimeter=0;labelBackgroundColor=default;strokeColor=default;fontFamily=Times New Roman;fontSize=22;fontColor=default;endArrow=none;endFill=0;" parent="1" edge="1">
          <mxGeometry relative="1" as="geometry">
            <mxPoint x="600" y="499.9999999999999" as="sourcePoint" />
            <mxPoint x="540" y="519.9999999999999" as="targetPoint" />
            <Array as="points">
              <mxPoint x="600" y="520" />
            </Array>
          </mxGeometry>
        </mxCell>
        <mxCell id="WglootA35rn0hBsXgaP3-60" style="edgeStyle=orthogonalEdgeStyle;shape=connector;rounded=0;orthogonalLoop=1;jettySize=auto;html=1;exitX=1;exitY=0;exitDx=0;exitDy=0;exitPerimeter=0;entryX=0;entryY=0.5;entryDx=0;entryDy=0;entryPerimeter=0;labelBackgroundColor=default;strokeColor=default;fontFamily=Times New Roman;fontSize=22;fontColor=default;endArrow=none;endFill=0;" parent="1" target="WglootA35rn0hBsXgaP3-56" edge="1">
          <mxGeometry relative="1" as="geometry">
            <mxPoint x="619.090909090909" y="439.9999999999999" as="sourcePoint" />
            <Array as="points">
              <mxPoint x="650" y="440" />
              <mxPoint x="650" y="520" />
            </Array>
          </mxGeometry>
        </mxCell>
        <mxCell id="WglootA35rn0hBsXgaP3-68" style="edgeStyle=orthogonalEdgeStyle;shape=connector;rounded=0;orthogonalLoop=1;jettySize=auto;html=1;exitX=1;exitY=1;exitDx=0;exitDy=0;exitPerimeter=0;entryX=1.02;entryY=0.16;entryDx=0;entryDy=0;entryPerimeter=0;labelBackgroundColor=default;strokeColor=default;fontFamily=Times New Roman;fontSize=22;fontColor=default;endArrow=none;endFill=0;" parent="1" target="WglootA35rn0hBsXgaP3-55" edge="1">
          <mxGeometry relative="1" as="geometry">
            <mxPoint x="740.9090909090912" y="240" as="sourcePoint" />
            <Array as="points">
              <mxPoint x="680" y="240" />
            </Array>
          </mxGeometry>
        </mxCell>
        <mxCell id="WglootA35rn0hBsXgaP3-91" style="edgeStyle=orthogonalEdgeStyle;shape=connector;rounded=0;orthogonalLoop=1;jettySize=auto;html=1;exitX=1;exitY=0;exitDx=0;exitDy=0;exitPerimeter=0;entryX=0.008;entryY=0.453;entryDx=0;entryDy=0;entryPerimeter=0;labelBackgroundColor=default;strokeColor=default;fontFamily=Times New Roman;fontSize=22;fontColor=default;endArrow=none;endFill=0;" parent="1" target="WglootA35rn0hBsXgaP3-89" edge="1">
          <mxGeometry relative="1" as="geometry">
            <mxPoint x="779.0909090909092" y="240" as="sourcePoint" />
            <Array as="points">
              <mxPoint x="790" y="240" />
              <mxPoint x="790" y="240" />
            </Array>
          </mxGeometry>
        </mxCell>
        <mxCell id="WglootA35rn0hBsXgaP3-105" style="edgeStyle=orthogonalEdgeStyle;shape=connector;rounded=0;orthogonalLoop=1;jettySize=auto;html=1;exitX=0;exitY=0.5;exitDx=0;exitDy=0;exitPerimeter=0;entryX=0.5;entryY=1;entryDx=0;entryDy=0;labelBackgroundColor=default;strokeColor=default;fontFamily=Times New Roman;fontSize=22;fontColor=default;endArrow=none;endFill=0;" parent="1" target="WglootA35rn0hBsXgaP3-75" edge="1">
          <mxGeometry relative="1" as="geometry">
            <mxPoint x="760" y="179.99999999999977" as="sourcePoint" />
            <Array as="points">
              <mxPoint x="760" y="160" />
              <mxPoint x="600" y="160" />
            </Array>
          </mxGeometry>
        </mxCell>
        <mxCell id="WglootA35rn0hBsXgaP3-66" style="edgeStyle=orthogonalEdgeStyle;shape=connector;rounded=0;orthogonalLoop=1;jettySize=auto;html=1;exitX=1;exitY=1;exitDx=0;exitDy=0;exitPerimeter=0;entryX=0.37;entryY=0.98;entryDx=0;entryDy=0;entryPerimeter=0;labelBackgroundColor=default;strokeColor=default;fontFamily=Times New Roman;fontSize=22;fontColor=default;endArrow=none;endFill=0;" parent="1" target="WglootA35rn0hBsXgaP3-56" edge="1">
          <mxGeometry relative="1" as="geometry">
            <mxPoint x="740.9090909090908" y="559.9999999999999" as="sourcePoint" />
            <Array as="points">
              <mxPoint x="680" y="560" />
            </Array>
          </mxGeometry>
        </mxCell>
        <mxCell id="WglootA35rn0hBsXgaP3-92" style="edgeStyle=orthogonalEdgeStyle;shape=connector;rounded=0;orthogonalLoop=1;jettySize=auto;html=1;exitX=1;exitY=0;exitDx=0;exitDy=0;exitPerimeter=0;entryX=0.003;entryY=0.487;entryDx=0;entryDy=0;entryPerimeter=0;labelBackgroundColor=default;strokeColor=default;fontFamily=Times New Roman;fontSize=22;fontColor=default;endArrow=none;endFill=0;" parent="1" target="WglootA35rn0hBsXgaP3-88" edge="1">
          <mxGeometry relative="1" as="geometry">
            <mxPoint x="779.090909090909" y="559.9999999999999" as="sourcePoint" />
            <Array as="points">
              <mxPoint x="790" y="560" />
              <mxPoint x="790" y="560" />
            </Array>
          </mxGeometry>
        </mxCell>
        <mxCell id="WglootA35rn0hBsXgaP3-103" style="edgeStyle=orthogonalEdgeStyle;shape=connector;rounded=0;orthogonalLoop=1;jettySize=auto;html=1;exitX=0;exitY=0.5;exitDx=0;exitDy=0;exitPerimeter=0;entryX=0.5;entryY=0;entryDx=0;entryDy=0;labelBackgroundColor=default;strokeColor=default;fontFamily=Times New Roman;fontSize=22;fontColor=default;endArrow=none;endFill=0;" parent="1" target="WglootA35rn0hBsXgaP3-71" edge="1">
          <mxGeometry relative="1" as="geometry">
            <mxPoint x="760" y="620" as="sourcePoint" />
            <Array as="points">
              <mxPoint x="760" y="640" />
              <mxPoint x="600" y="640" />
            </Array>
          </mxGeometry>
        </mxCell>
        <mxCell id="WglootA35rn0hBsXgaP3-55" value="" style="shape=waypoint;sketch=0;fillStyle=solid;size=6;pointerEvents=1;points=[];fillColor=none;resizable=0;rotatable=0;perimeter=centerPerimeter;snapToPoint=1;fontFamily=Helvetica;fontSize=11;fontColor=default;rounded=0;strokeColor=default;html=1;" parent="1" vertex="1">
          <mxGeometry x="660" y="260" width="40" height="40" as="geometry" />
        </mxCell>
        <mxCell id="WglootA35rn0hBsXgaP3-56" value="" style="shape=waypoint;sketch=0;fillStyle=solid;size=6;pointerEvents=1;points=[];fillColor=none;resizable=0;rotatable=0;perimeter=centerPerimeter;snapToPoint=1;fontFamily=Helvetica;fontSize=11;fontColor=default;rounded=0;strokeColor=default;html=1;" parent="1" vertex="1">
          <mxGeometry x="660" y="500" width="40" height="40" as="geometry" />
        </mxCell>
        <mxCell id="WglootA35rn0hBsXgaP3-69" value="V&lt;span style=&quot;font-size: 18.3333px;&quot;&gt;&lt;sub&gt;L&lt;/sub&gt;&lt;/span&gt;" style="rounded=0;whiteSpace=wrap;html=1;fontSize=22;fontFamily=Times New Roman;" parent="1" vertex="1">
          <mxGeometry x="240" y="680" width="80" height="80" as="geometry" />
        </mxCell>
        <mxCell id="WglootA35rn0hBsXgaP3-70" value="V&lt;sub&gt;dd&lt;/sub&gt;" style="rounded=0;whiteSpace=wrap;html=1;fontSize=22;fontFamily=Times New Roman;" parent="1" vertex="1">
          <mxGeometry x="400" y="680" width="80" height="80" as="geometry" />
        </mxCell>
        <mxCell id="WglootA35rn0hBsXgaP3-71" value="V&lt;sub&gt;CTRL&lt;/sub&gt;-" style="rounded=0;whiteSpace=wrap;html=1;fontSize=22;fontFamily=Times New Roman;" parent="1" vertex="1">
          <mxGeometry x="560" y="680" width="80" height="80" as="geometry" />
        </mxCell>
        <mxCell id="WglootA35rn0hBsXgaP3-72" value="G" style="rounded=0;whiteSpace=wrap;html=1;fontSize=22;fontFamily=Times New Roman;" parent="1" vertex="1">
          <mxGeometry x="720" y="680" width="80" height="80" as="geometry" />
        </mxCell>
        <mxCell id="WglootA35rn0hBsXgaP3-73" value="V&lt;span style=&quot;font-size: 15.2778px;&quot;&gt;&lt;sub&gt;U&lt;/sub&gt;&lt;/span&gt;" style="rounded=0;whiteSpace=wrap;html=1;fontSize=22;fontFamily=Times New Roman;" parent="1" vertex="1">
          <mxGeometry x="240" y="40" width="80" height="80" as="geometry" />
        </mxCell>
        <mxCell id="WglootA35rn0hBsXgaP3-74" value="G" style="rounded=0;whiteSpace=wrap;html=1;fontSize=22;fontFamily=Times New Roman;" parent="1" vertex="1">
          <mxGeometry x="400" y="40" width="80" height="80" as="geometry" />
        </mxCell>
        <mxCell id="WglootA35rn0hBsXgaP3-75" value="V&lt;sub&gt;CTRL&lt;/sub&gt;+" style="rounded=0;whiteSpace=wrap;html=1;fontSize=22;fontFamily=Times New Roman;" parent="1" vertex="1">
          <mxGeometry x="560" y="40" width="80" height="80" as="geometry" />
        </mxCell>
        <mxCell id="WglootA35rn0hBsXgaP3-76" value="V&lt;sub&gt;dd&lt;/sub&gt;" style="rounded=0;whiteSpace=wrap;html=1;fontSize=22;fontFamily=Times New Roman;" parent="1" vertex="1">
          <mxGeometry x="720" y="40" width="80" height="80" as="geometry" />
        </mxCell>
        <mxCell id="WglootA35rn0hBsXgaP3-77" value="v&lt;sub&gt;out&lt;/sub&gt;+" style="rounded=0;whiteSpace=wrap;html=1;fontFamily=Times New Roman;fontSize=22;" parent="1" vertex="1">
          <mxGeometry x="1000" y="480" width="80" height="80" as="geometry" />
        </mxCell>
        <mxCell id="WglootA35rn0hBsXgaP3-78" value="v&lt;span style=&quot;font-size: 18.3333px;&quot;&gt;&lt;sub&gt;out&lt;/sub&gt;-&lt;/span&gt;" style="rounded=0;whiteSpace=wrap;html=1;fontSize=22;fontFamily=Times New Roman;" parent="1" vertex="1">
          <mxGeometry x="1000" y="240" width="80" height="80" as="geometry" />
        </mxCell>
        <mxCell id="WglootA35rn0hBsXgaP3-80" value="G" style="rounded=0;whiteSpace=wrap;html=1;fontSize=22;fontFamily=Times New Roman;" parent="1" vertex="1">
          <mxGeometry x="1000" y="360" width="80" height="80" as="geometry" />
        </mxCell>
        <mxCell id="WglootA35rn0hBsXgaP3-81" value="G" style="rounded=0;whiteSpace=wrap;html=1;fontSize=22;fontFamily=Times New Roman;" parent="1" vertex="1">
          <mxGeometry x="1000" y="120" width="80" height="80" as="geometry" />
        </mxCell>
        <mxCell id="WglootA35rn0hBsXgaP3-82" value="G" style="rounded=0;whiteSpace=wrap;html=1;fontSize=22;fontFamily=Times New Roman;" parent="1" vertex="1">
          <mxGeometry x="1000" y="600" width="80" height="80" as="geometry" />
        </mxCell>
        <mxCell id="WglootA35rn0hBsXgaP3-93" style="edgeStyle=orthogonalEdgeStyle;shape=connector;rounded=0;orthogonalLoop=1;jettySize=auto;html=1;exitX=0;exitY=0.5;exitDx=0;exitDy=0;exitPerimeter=0;entryX=0.403;entryY=0.973;entryDx=0;entryDy=0;entryPerimeter=0;labelBackgroundColor=default;strokeColor=default;fontFamily=Times New Roman;fontSize=22;fontColor=default;endArrow=none;endFill=0;" parent="1" target="WglootA35rn0hBsXgaP3-88" edge="1">
          <mxGeometry relative="1" as="geometry">
            <mxPoint x="860" y="580" as="sourcePoint" />
          </mxGeometry>
        </mxCell>
        <mxCell id="WglootA35rn0hBsXgaP3-90" style="edgeStyle=orthogonalEdgeStyle;shape=connector;rounded=0;orthogonalLoop=1;jettySize=auto;html=1;exitX=0;exitY=0.5;exitDx=0;exitDy=0;exitPerimeter=0;entryX=0.735;entryY=0.002;entryDx=0;entryDy=0;entryPerimeter=0;labelBackgroundColor=default;strokeColor=default;fontFamily=Times New Roman;fontSize=22;fontColor=default;endArrow=none;endFill=0;" parent="1" target="WglootA35rn0hBsXgaP3-89" edge="1">
          <mxGeometry relative="1" as="geometry">
            <mxPoint x="860" y="220" as="sourcePoint" />
          </mxGeometry>
        </mxCell>
        <mxCell id="WglootA35rn0hBsXgaP3-107" style="edgeStyle=orthogonalEdgeStyle;shape=connector;rounded=0;orthogonalLoop=1;jettySize=auto;html=1;exitX=1;exitY=0;exitDx=0;exitDy=0;exitPerimeter=0;labelBackgroundColor=default;strokeColor=default;fontFamily=Times New Roman;fontSize=22;fontColor=default;endArrow=none;endFill=0;" parent="1" edge="1">
          <mxGeometry relative="1" as="geometry">
            <mxPoint x="920" y="160" as="targetPoint" />
            <mxPoint x="920" y="172.8571428571429" as="sourcePoint" />
          </mxGeometry>
        </mxCell>
        <mxCell id="WglootA35rn0hBsXgaP3-123" style="edgeStyle=orthogonalEdgeStyle;shape=link;rounded=0;orthogonalLoop=1;jettySize=auto;html=1;exitX=1;exitY=1;exitDx=0;exitDy=0;exitPerimeter=0;entryX=0;entryY=0.5;entryDx=0;entryDy=0;labelBackgroundColor=default;strokeColor=#FF0000;fontFamily=Times New Roman;fontSize=22;fontColor=default;endArrow=none;endFill=0;" parent="1" target="WglootA35rn0hBsXgaP3-78" edge="1">
          <mxGeometry relative="1" as="geometry">
            <mxPoint x="920" y="267.1428571428572" as="sourcePoint" />
            <Array as="points">
              <mxPoint x="920" y="280" />
            </Array>
          </mxGeometry>
        </mxCell>
        <mxCell id="WglootA35rn0hBsXgaP3-88" value="" style="shape=waypoint;sketch=0;fillStyle=solid;size=6;pointerEvents=1;points=[];fillColor=none;resizable=0;rotatable=0;perimeter=centerPerimeter;snapToPoint=1;fontFamily=Helvetica;fontSize=11;fontColor=default;rounded=0;strokeColor=default;html=1;" parent="1" vertex="1">
          <mxGeometry x="820" y="540" width="40" height="40" as="geometry" />
        </mxCell>
        <mxCell id="WglootA35rn0hBsXgaP3-89" value="" style="shape=waypoint;sketch=0;fillStyle=solid;size=6;pointerEvents=1;points=[];fillColor=none;resizable=0;rotatable=0;perimeter=centerPerimeter;snapToPoint=1;fontFamily=Helvetica;fontSize=11;fontColor=default;rounded=0;strokeColor=default;html=1;" parent="1" vertex="1">
          <mxGeometry x="820" y="220" width="40" height="40" as="geometry" />
        </mxCell>
        <mxCell id="WglootA35rn0hBsXgaP3-96" value="" style="endArrow=none;html=1;rounded=0;labelBackgroundColor=default;strokeColor=default;fontFamily=Helvetica;fontSize=11;fontColor=default;shape=connector;entryX=0.476;entryY=1.007;entryDx=0;entryDy=0;entryPerimeter=0;exitX=1;exitY=0;exitDx=0;exitDy=0;exitPerimeter=0;" parent="1" target="WglootA35rn0hBsXgaP3-89" edge="1">
          <mxGeometry width="50" height="50" relative="1" as="geometry">
            <mxPoint x="779.090909090909" y="439.9999999999999" as="sourcePoint" />
            <mxPoint x="839.76" y="280" as="targetPoint" />
            <Array as="points">
              <mxPoint x="810" y="440" />
              <mxPoint x="810" y="420" />
              <mxPoint x="840" y="380" />
            </Array>
          </mxGeometry>
        </mxCell>
        <mxCell id="WglootA35rn0hBsXgaP3-97" value="" style="endArrow=none;html=1;rounded=0;labelBackgroundColor=default;strokeColor=default;fontFamily=Helvetica;fontSize=11;fontColor=default;shape=connector;entryX=1.013;entryY=0.084;entryDx=0;entryDy=0;entryPerimeter=0;exitX=0.303;exitY=-0.033;exitDx=0;exitDy=0;exitPerimeter=0;" parent="1" source="WglootA35rn0hBsXgaP3-88" edge="1">
          <mxGeometry width="50" height="50" relative="1" as="geometry">
            <mxPoint x="850" y="480" as="sourcePoint" />
            <mxPoint x="775.8836363636365" y="360.77999999999986" as="targetPoint" />
            <Array as="points">
              <mxPoint x="840" y="420" />
              <mxPoint x="810" y="380" />
              <mxPoint x="810" y="360" />
            </Array>
          </mxGeometry>
        </mxCell>
        <mxCell id="WglootA35rn0hBsXgaP3-99" value="" style="endArrow=none;html=1;rounded=0;labelBackgroundColor=default;strokeColor=default;fontFamily=Helvetica;fontSize=11;fontColor=default;shape=connector;exitX=0.534;exitY=0.004;exitDx=0;exitDy=0;exitPerimeter=0;entryX=1;entryY=1;entryDx=0;entryDy=0;entryPerimeter=0;" parent="1" source="WglootA35rn0hBsXgaP3-56" edge="1">
          <mxGeometry width="50" height="50" relative="1" as="geometry">
            <mxPoint x="690" y="460" as="sourcePoint" />
            <mxPoint x="740.9090909090912" y="360" as="targetPoint" />
            <Array as="points">
              <mxPoint x="680" y="420" />
              <mxPoint x="710" y="390" />
              <mxPoint x="710" y="360" />
            </Array>
          </mxGeometry>
        </mxCell>
        <mxCell id="WglootA35rn0hBsXgaP3-101" value="" style="endArrow=none;html=1;rounded=0;labelBackgroundColor=default;strokeColor=default;fontFamily=Helvetica;fontSize=11;fontColor=default;shape=connector;entryX=0.616;entryY=1.062;entryDx=0;entryDy=0;entryPerimeter=0;exitX=1;exitY=1;exitDx=0;exitDy=0;exitPerimeter=0;" parent="1" target="WglootA35rn0hBsXgaP3-55" edge="1">
          <mxGeometry width="50" height="50" relative="1" as="geometry">
            <mxPoint x="740.9090909090908" y="439.9999999999999" as="sourcePoint" />
            <mxPoint x="690" y="320" as="targetPoint" />
            <Array as="points">
              <mxPoint x="710" y="440" />
              <mxPoint x="710" y="410" />
              <mxPoint x="680" y="380" />
            </Array>
          </mxGeometry>
        </mxCell>
        <mxCell id="WglootA35rn0hBsXgaP3-124" style="edgeStyle=orthogonalEdgeStyle;shape=link;rounded=0;orthogonalLoop=1;jettySize=auto;html=1;exitX=0;exitY=0.5;exitDx=0;exitDy=0;exitPerimeter=0;entryX=1;entryY=0.5;entryDx=0;entryDy=0;labelBackgroundColor=default;strokeColor=#FF0000;fontFamily=Times New Roman;fontSize=22;fontColor=default;endArrow=none;endFill=0;" parent="1" source="WglootA35rn0hBsXgaP3-109" target="WglootA35rn0hBsXgaP3-14" edge="1">
          <mxGeometry relative="1" as="geometry" />
        </mxCell>
        <mxCell id="WglootA35rn0hBsXgaP3-109" value="" style="verticalLabelPosition=bottom;shadow=0;dashed=0;align=center;html=1;verticalAlign=top;shape=stencil(tVZNc4MgFPw1XDsqMbbHjk1ubQ859EwRKxMFB0iT/vsi2E7wg1FjHGcc9snuvn3ECYCpLFBNQBQgWROsAHwBUZTTC8n0U8OFRcIwsGuGKmKht9f3g8WkEvxIzjRT7duUFURQZatniyWGAO5A8KzB5oYp5oxpUcqZdCpXdc2NKFOu8s4y11qkIooIC7cOL61ju/pxaiDazxE6zBcKFwl9TNAJ3IYe4mElmGpkLFiYfiJ8/BL8xLJBfxJ9E4/9GjUj7hX+yhU3uwcNxyN+XYaSsiuGTTiDwjTeM2jQkaZhmnNBfGmYg71WHp1u4O2BJAsCuU9vSed0zm+tw7AonXhtCn/AkxpZgeL/43uXOQsilf4ZeN/AylNe9yTFGze+BUdp+3TzBDouHie5yGlZYl5yoZf2aTaDCAbmmsKBSy59WfpG3eiPDsNs7X3vDGr/AhjgFw==);pointerEvents=1;rounded=0;strokeColor=default;fontFamily=Times New Roman;fontSize=22;fontColor=default;fillColor=default;" parent="1" vertex="1">
          <mxGeometry x="180" y="230" width="60" height="100" as="geometry" />
        </mxCell>
        <mxCell id="WglootA35rn0hBsXgaP3-125" style="edgeStyle=orthogonalEdgeStyle;shape=link;rounded=0;orthogonalLoop=1;jettySize=auto;html=1;exitX=0;exitY=0.5;exitDx=0;exitDy=0;exitPerimeter=0;entryX=1;entryY=0.5;entryDx=0;entryDy=0;labelBackgroundColor=default;strokeColor=#FF0000;fontFamily=Times New Roman;fontSize=22;fontColor=default;endArrow=none;endFill=0;" parent="1" source="WglootA35rn0hBsXgaP3-110" target="WglootA35rn0hBsXgaP3-13" edge="1">
          <mxGeometry relative="1" as="geometry" />
        </mxCell>
        <mxCell id="WglootA35rn0hBsXgaP3-110" value="" style="verticalLabelPosition=bottom;shadow=0;dashed=0;align=center;html=1;verticalAlign=top;shape=stencil(tVZNc4MgFPw1XDsqMbbHjk1ubQ859EwRKxMFB0iT/vsi2E7wg1FjHGcc9snuvn3ECYCpLFBNQBQgWROsAHwBUZTTC8n0U8OFRcIwsGuGKmKht9f3g8WkEvxIzjRT7duUFURQZatniyWGAO5A8KzB5oYp5oxpUcqZdCpXdc2NKFOu8s4y11qkIooIC7cOL61ju/pxaiDazxE6zBcKFwl9TNAJ3IYe4mElmGpkLFiYfiJ8/BL8xLJBfxJ9E4/9GjUj7hX+yhU3uwcNxyN+XYaSsiuGTTiDwjTeM2jQkaZhmnNBfGmYg71WHp1u4O2BJAsCuU9vSed0zm+tw7AonXhtCn/AkxpZgeL/43uXOQsilf4ZeN/AylNe9yTFGze+BUdp+3TzBDouHie5yGlZYl5yoZf2aTaDCAbmmsKBSy59WfpG3eiPDsNs7X3vDGr/AhjgFw==);pointerEvents=1;rounded=0;strokeColor=default;fontFamily=Times New Roman;fontSize=22;fontColor=default;fillColor=default;flipV=1;" parent="1" vertex="1">
          <mxGeometry x="180" y="470" width="60" height="100" as="geometry" />
        </mxCell>
        <mxCell id="WglootA35rn0hBsXgaP3-146" style="edgeStyle=orthogonalEdgeStyle;shape=connector;rounded=0;orthogonalLoop=1;jettySize=auto;html=1;exitX=1;exitY=1;exitDx=0;exitDy=0;exitPerimeter=0;entryX=0.443;entryY=0.007;entryDx=0;entryDy=0;entryPerimeter=0;labelBackgroundColor=default;strokeColor=default;fontFamily=Times New Roman;fontSize=22;fontColor=default;endArrow=none;endFill=0;" parent="1" source="WglootA35rn0hBsXgaP3-111" target="WglootA35rn0hBsXgaP3-143" edge="1">
          <mxGeometry relative="1" as="geometry" />
        </mxCell>
        <mxCell id="WglootA35rn0hBsXgaP3-111" value="" style="verticalLabelPosition=bottom;shadow=0;dashed=0;align=center;html=1;verticalAlign=top;shape=stencil(tVZNc4MgFPw1XDsqMbbHjk1ubQ859EwRKxMFB0iT/vsi2E7wg1FjHGcc9snuvn3ECYCpLFBNQBQgWROsAHwBUZTTC8n0U8OFRcIwsGuGKmKht9f3g8WkEvxIzjRT7duUFURQZatniyWGAO5A8KzB5oYp5oxpUcqZdCpXdc2NKFOu8s4y11qkIooIC7cOL61ju/pxaiDazxE6zBcKFwl9TNAJ3IYe4mElmGpkLFiYfiJ8/BL8xLJBfxJ9E4/9GjUj7hX+yhU3uwcNxyN+XYaSsiuGTTiDwjTeM2jQkaZhmnNBfGmYg71WHp1u4O2BJAsCuU9vSed0zm+tw7AonXhtCn/AkxpZgeL/43uXOQsilf4ZeN/AylNe9yTFGze+BUdp+3TzBDouHie5yGlZYl5yoZf2aTaDCAbmmsKBSy59WfpG3eiPDsNs7X3vDGr/AhjgFw==);pointerEvents=1;rounded=0;strokeColor=default;fontFamily=Times New Roman;fontSize=22;fontColor=default;fillColor=default;flipH=1;" parent="1" vertex="1">
          <mxGeometry x="480" y="230" width="60" height="100" as="geometry" />
        </mxCell>
        <mxCell id="WglootA35rn0hBsXgaP3-147" style="edgeStyle=orthogonalEdgeStyle;shape=connector;rounded=0;orthogonalLoop=1;jettySize=auto;html=1;exitX=1;exitY=1;exitDx=0;exitDy=0;exitPerimeter=0;entryX=0.443;entryY=0.993;entryDx=0;entryDy=0;entryPerimeter=0;labelBackgroundColor=default;strokeColor=default;fontFamily=Times New Roman;fontSize=22;fontColor=default;endArrow=none;endFill=0;" parent="1" source="WglootA35rn0hBsXgaP3-112" target="WglootA35rn0hBsXgaP3-143" edge="1">
          <mxGeometry relative="1" as="geometry" />
        </mxCell>
        <mxCell id="WglootA35rn0hBsXgaP3-112" value="" style="verticalLabelPosition=bottom;shadow=0;dashed=0;align=center;html=1;verticalAlign=top;shape=stencil(tVZNc4MgFPw1XDsqMbbHjk1ubQ859EwRKxMFB0iT/vsi2E7wg1FjHGcc9snuvn3ECYCpLFBNQBQgWROsAHwBUZTTC8n0U8OFRcIwsGuGKmKht9f3g8WkEvxIzjRT7duUFURQZatniyWGAO5A8KzB5oYp5oxpUcqZdCpXdc2NKFOu8s4y11qkIooIC7cOL61ju/pxaiDazxE6zBcKFwl9TNAJ3IYe4mElmGpkLFiYfiJ8/BL8xLJBfxJ9E4/9GjUj7hX+yhU3uwcNxyN+XYaSsiuGTTiDwjTeM2jQkaZhmnNBfGmYg71WHp1u4O2BJAsCuU9vSed0zm+tw7AonXhtCn/AkxpZgeL/43uXOQsilf4ZeN/AylNe9yTFGze+BUdp+3TzBDouHie5yGlZYl5yoZf2aTaDCAbmmsKBSy59WfpG3eiPDsNs7X3vDGr/AhjgFw==);pointerEvents=1;rounded=0;strokeColor=default;fontFamily=Times New Roman;fontSize=22;fontColor=default;fillColor=default;flipV=1;flipH=1;" parent="1" vertex="1">
          <mxGeometry x="480" y="470" width="60" height="100" as="geometry" />
        </mxCell>
        <mxCell id="WglootA35rn0hBsXgaP3-150" style="edgeStyle=orthogonalEdgeStyle;shape=connector;rounded=0;orthogonalLoop=1;jettySize=auto;html=1;exitX=1;exitY=1;exitDx=0;exitDy=0;exitPerimeter=0;entryX=0.563;entryY=0;entryDx=0;entryDy=0;entryPerimeter=0;labelBackgroundColor=default;strokeColor=default;fontFamily=Times New Roman;fontSize=22;fontColor=default;endArrow=none;endFill=0;" parent="1" source="WglootA35rn0hBsXgaP3-113" target="WglootA35rn0hBsXgaP3-148" edge="1">
          <mxGeometry relative="1" as="geometry">
            <Array as="points">
              <mxPoint x="520" y="360" />
            </Array>
          </mxGeometry>
        </mxCell>
        <mxCell id="WglootA35rn0hBsXgaP3-113" value="" style="verticalLabelPosition=bottom;shadow=0;dashed=0;align=center;html=1;verticalAlign=top;shape=stencil(tVZNc4MgFPw1XDsqMbbHjk1ubQ859EwRKxMFB0iT/vsi2E7wg1FjHGcc9snuvn3ECYCpLFBNQBQgWROsAHwBUZTTC8n0U8OFRcIwsGuGKmKht9f3g8WkEvxIzjRT7duUFURQZatniyWGAO5A8KzB5oYp5oxpUcqZdCpXdc2NKFOu8s4y11qkIooIC7cOL61ju/pxaiDazxE6zBcKFwl9TNAJ3IYe4mElmGpkLFiYfiJ8/BL8xLJBfxJ9E4/9GjUj7hX+yhU3uwcNxyN+XYaSsiuGTTiDwjTeM2jQkaZhmnNBfGmYg71WHp1u4O2BJAsCuU9vSed0zm+tw7AonXhtCn/AkxpZgeL/43uXOQsilf4ZeN/AylNe9yTFGze+BUdp+3TzBDouHie5yGlZYl5yoZf2aTaDCAbmmsKBSy59WfpG3eiPDsNs7X3vDGr/AhjgFw==);pointerEvents=1;rounded=0;strokeColor=default;fontFamily=Times New Roman;fontSize=22;fontColor=default;fillColor=default;flipV=1;flipH=1;direction=north;" parent="1" vertex="1">
          <mxGeometry x="550" y="300" width="100" height="60" as="geometry" />
        </mxCell>
        <mxCell id="WglootA35rn0hBsXgaP3-151" style="edgeStyle=orthogonalEdgeStyle;shape=connector;rounded=0;orthogonalLoop=1;jettySize=auto;html=1;exitX=1;exitY=1;exitDx=0;exitDy=0;exitPerimeter=0;entryX=0.423;entryY=1.033;entryDx=0;entryDy=0;entryPerimeter=0;labelBackgroundColor=default;strokeColor=default;fontFamily=Times New Roman;fontSize=22;fontColor=default;endArrow=none;endFill=0;" parent="1" source="WglootA35rn0hBsXgaP3-114" target="WglootA35rn0hBsXgaP3-148" edge="1">
          <mxGeometry relative="1" as="geometry">
            <Array as="points">
              <mxPoint x="520" y="440" />
            </Array>
          </mxGeometry>
        </mxCell>
        <mxCell id="WglootA35rn0hBsXgaP3-114" value="" style="verticalLabelPosition=bottom;shadow=0;dashed=0;align=center;html=1;verticalAlign=top;shape=stencil(tVZNc4MgFPw1XDsqMbbHjk1ubQ859EwRKxMFB0iT/vsi2E7wg1FjHGcc9snuvn3ECYCpLFBNQBQgWROsAHwBUZTTC8n0U8OFRcIwsGuGKmKht9f3g8WkEvxIzjRT7duUFURQZatniyWGAO5A8KzB5oYp5oxpUcqZdCpXdc2NKFOu8s4y11qkIooIC7cOL61ju/pxaiDazxE6zBcKFwl9TNAJ3IYe4mElmGpkLFiYfiJ8/BL8xLJBfxJ9E4/9GjUj7hX+yhU3uwcNxyN+XYaSsiuGTTiDwjTeM2jQkaZhmnNBfGmYg71WHp1u4O2BJAsCuU9vSed0zm+tw7AonXhtCn/AkxpZgeL/43uXOQsilf4ZeN/AylNe9yTFGze+BUdp+3TzBDouHie5yGlZYl5yoZf2aTaDCAbmmsKBSy59WfpG3eiPDsNs7X3vDGr/AhjgFw==);pointerEvents=1;rounded=0;strokeColor=default;fontFamily=Times New Roman;fontSize=22;fontColor=default;fillColor=default;flipH=1;direction=north;" parent="1" vertex="1">
          <mxGeometry x="550" y="440" width="100" height="60" as="geometry" />
        </mxCell>
        <mxCell id="WglootA35rn0hBsXgaP3-119" style="edgeStyle=orthogonalEdgeStyle;shape=connector;rounded=0;orthogonalLoop=1;jettySize=auto;html=1;exitX=0;exitY=0.5;exitDx=0;exitDy=0;exitPerimeter=0;entryX=0;entryY=0.5;entryDx=0;entryDy=0;entryPerimeter=0;labelBackgroundColor=default;strokeColor=default;fontFamily=Times New Roman;fontSize=22;fontColor=default;endArrow=none;endFill=0;" parent="1" source="WglootA35rn0hBsXgaP3-115" target="WglootA35rn0hBsXgaP3-116" edge="1">
          <mxGeometry relative="1" as="geometry">
            <Array as="points">
              <mxPoint x="760" y="220" />
              <mxPoint x="760" y="220" />
            </Array>
          </mxGeometry>
        </mxCell>
        <mxCell id="WglootA35rn0hBsXgaP3-115" value="" style="verticalLabelPosition=bottom;shadow=0;dashed=0;align=center;html=1;verticalAlign=top;shape=stencil(tVZNc4MgFPw1XDsqMbbHjk1ubQ859EwRKxMFB0iT/vsi2E7wg1FjHGcc9snuvn3ECYCpLFBNQBQgWROsAHwBUZTTC8n0U8OFRcIwsGuGKmKht9f3g8WkEvxIzjRT7duUFURQZatniyWGAO5A8KzB5oYp5oxpUcqZdCpXdc2NKFOu8s4y11qkIooIC7cOL61ju/pxaiDazxE6zBcKFwl9TNAJ3IYe4mElmGpkLFiYfiJ8/BL8xLJBfxJ9E4/9GjUj7hX+yhU3uwcNxyN+XYaSsiuGTTiDwjTeM2jQkaZhmnNBfGmYg71WHp1u4O2BJAsCuU9vSed0zm+tw7AonXhtCn/AkxpZgeL/43uXOQsilf4ZeN/AylNe9yTFGze+BUdp+3TzBDouHie5yGlZYl5yoZf2aTaDCAbmmsKBSy59WfpG3eiPDsNs7X3vDGr/AhjgFw==);pointerEvents=1;rounded=0;strokeColor=default;fontFamily=Times New Roman;fontSize=22;fontColor=default;fillColor=default;flipV=1;flipH=1;direction=north;" parent="1" vertex="1">
          <mxGeometry x="710" y="300" width="100" height="60" as="geometry" />
        </mxCell>
        <mxCell id="WglootA35rn0hBsXgaP3-116" value="" style="verticalLabelPosition=bottom;shadow=0;dashed=0;align=center;html=1;verticalAlign=top;shape=stencil(tVZNc4MgFPw1XDsqMbbHjk1ubQ859EwRKxMFB0iT/vsi2E7wg1FjHGcc9snuvn3ECYCpLFBNQBQgWROsAHwBUZTTC8n0U8OFRcIwsGuGKmKht9f3g8WkEvxIzjRT7duUFURQZatniyWGAO5A8KzB5oYp5oxpUcqZdCpXdc2NKFOu8s4y11qkIooIC7cOL61ju/pxaiDazxE6zBcKFwl9TNAJ3IYe4mElmGpkLFiYfiJ8/BL8xLJBfxJ9E4/9GjUj7hX+yhU3uwcNxyN+XYaSsiuGTTiDwjTeM2jQkaZhmnNBfGmYg71WHp1u4O2BJAsCuU9vSed0zm+tw7AonXhtCn/AkxpZgeL/43uXOQsilf4ZeN/AylNe9yTFGze+BUdp+3TzBDouHie5yGlZYl5yoZf2aTaDCAbmmsKBSy59WfpG3eiPDsNs7X3vDGr/AhjgFw==);pointerEvents=1;rounded=0;strokeColor=default;fontFamily=Times New Roman;fontSize=22;fontColor=default;fillColor=default;flipV=1;flipH=1;direction=north;" parent="1" vertex="1">
          <mxGeometry x="710" y="180" width="100" height="60" as="geometry" />
        </mxCell>
        <mxCell id="WglootA35rn0hBsXgaP3-117" value="" style="verticalLabelPosition=bottom;shadow=0;dashed=0;align=center;html=1;verticalAlign=top;shape=stencil(tVZNc4MgFPw1XDsqMbbHjk1ubQ859EwRKxMFB0iT/vsi2E7wg1FjHGcc9snuvn3ECYCpLFBNQBQgWROsAHwBUZTTC8n0U8OFRcIwsGuGKmKht9f3g8WkEvxIzjRT7duUFURQZatniyWGAO5A8KzB5oYp5oxpUcqZdCpXdc2NKFOu8s4y11qkIooIC7cOL61ju/pxaiDazxE6zBcKFwl9TNAJ3IYe4mElmGpkLFiYfiJ8/BL8xLJBfxJ9E4/9GjUj7hX+yhU3uwcNxyN+XYaSsiuGTTiDwjTeM2jQkaZhmnNBfGmYg71WHp1u4O2BJAsCuU9vSed0zm+tw7AonXhtCn/AkxpZgeL/43uXOQsilf4ZeN/AylNe9yTFGze+BUdp+3TzBDouHie5yGlZYl5yoZf2aTaDCAbmmsKBSy59WfpG3eiPDsNs7X3vDGr/AhjgFw==);pointerEvents=1;rounded=0;strokeColor=default;fontFamily=Times New Roman;fontSize=22;fontColor=default;fillColor=default;flipV=0;flipH=1;direction=north;" parent="1" vertex="1">
          <mxGeometry x="710" y="560" width="100" height="60" as="geometry" />
        </mxCell>
        <mxCell id="WglootA35rn0hBsXgaP3-120" style="edgeStyle=orthogonalEdgeStyle;shape=connector;rounded=0;orthogonalLoop=1;jettySize=auto;html=1;exitX=0;exitY=0.5;exitDx=0;exitDy=0;exitPerimeter=0;entryX=0;entryY=0.5;entryDx=0;entryDy=0;entryPerimeter=0;labelBackgroundColor=default;strokeColor=default;fontFamily=Times New Roman;fontSize=22;fontColor=default;endArrow=none;endFill=0;" parent="1" source="WglootA35rn0hBsXgaP3-118" target="WglootA35rn0hBsXgaP3-117" edge="1">
          <mxGeometry relative="1" as="geometry">
            <Array as="points">
              <mxPoint x="760" y="580" />
              <mxPoint x="760" y="580" />
            </Array>
          </mxGeometry>
        </mxCell>
        <mxCell id="WglootA35rn0hBsXgaP3-118" value="" style="verticalLabelPosition=bottom;shadow=0;dashed=0;align=center;html=1;verticalAlign=top;shape=stencil(tVZNc4MgFPw1XDsqMbbHjk1ubQ859EwRKxMFB0iT/vsi2E7wg1FjHGcc9snuvn3ECYCpLFBNQBQgWROsAHwBUZTTC8n0U8OFRcIwsGuGKmKht9f3g8WkEvxIzjRT7duUFURQZatniyWGAO5A8KzB5oYp5oxpUcqZdCpXdc2NKFOu8s4y11qkIooIC7cOL61ju/pxaiDazxE6zBcKFwl9TNAJ3IYe4mElmGpkLFiYfiJ8/BL8xLJBfxJ9E4/9GjUj7hX+yhU3uwcNxyN+XYaSsiuGTTiDwjTeM2jQkaZhmnNBfGmYg71WHp1u4O2BJAsCuU9vSed0zm+tw7AonXhtCn/AkxpZgeL/43uXOQsilf4ZeN/AylNe9yTFGze+BUdp+3TzBDouHie5yGlZYl5yoZf2aTaDCAbmmsKBSy59WfpG3eiPDsNs7X3vDGr/AhjgFw==);pointerEvents=1;rounded=0;strokeColor=default;fontFamily=Times New Roman;fontSize=22;fontColor=default;fillColor=default;flipV=0;flipH=1;direction=north;" parent="1" vertex="1">
          <mxGeometry x="710" y="440" width="100" height="60" as="geometry" />
        </mxCell>
        <mxCell id="WglootA35rn0hBsXgaP3-121" value="" style="endArrow=none;html=1;rounded=0;labelBackgroundColor=default;strokeColor=#FF0000;fontFamily=Times New Roman;fontSize=22;fontColor=default;shape=link;entryX=0;entryY=0.5;entryDx=0;entryDy=0;exitX=1;exitY=1;exitDx=0;exitDy=0;exitPerimeter=0;" parent="1" target="WglootA35rn0hBsXgaP3-77" edge="1">
          <mxGeometry width="50" height="50" relative="1" as="geometry">
            <mxPoint x="920" y="532.8571428571429" as="sourcePoint" />
            <mxPoint x="950" y="430" as="targetPoint" />
            <Array as="points">
              <mxPoint x="920" y="520" />
            </Array>
          </mxGeometry>
        </mxCell>
        <mxCell id="WglootA35rn0hBsXgaP3-137" style="edgeStyle=orthogonalEdgeStyle;shape=connector;rounded=0;orthogonalLoop=1;jettySize=auto;html=1;entryX=0.5;entryY=0;entryDx=0;entryDy=0;labelBackgroundColor=default;strokeColor=default;fontFamily=Times New Roman;fontSize=22;fontColor=default;endArrow=none;endFill=0;" parent="1" source="WglootA35rn0hBsXgaP3-126" target="WglootA35rn0hBsXgaP3-70" edge="1">
          <mxGeometry relative="1" as="geometry">
            <Array as="points">
              <mxPoint x="320" y="640" />
              <mxPoint x="440" y="640" />
            </Array>
          </mxGeometry>
        </mxCell>
        <mxCell id="WglootA35rn0hBsXgaP3-126" value="" style="shape=waypoint;sketch=0;fillStyle=solid;size=6;pointerEvents=1;points=[];fillColor=none;resizable=0;rotatable=0;perimeter=centerPerimeter;snapToPoint=1;fontFamily=Helvetica;fontSize=11;fontColor=default;rounded=0;strokeColor=default;html=1;" parent="1" vertex="1">
          <mxGeometry x="300" y="440" width="40" height="40" as="geometry" />
        </mxCell>
        <mxCell id="WglootA35rn0hBsXgaP3-133" style="edgeStyle=orthogonalEdgeStyle;shape=connector;rounded=0;orthogonalLoop=1;jettySize=auto;html=1;entryX=0.99;entryY=0.5;entryDx=0;entryDy=0;entryPerimeter=0;labelBackgroundColor=default;strokeColor=default;fontFamily=Times New Roman;fontSize=22;fontColor=default;endArrow=none;endFill=0;" parent="1" source="WglootA35rn0hBsXgaP3-130" target="WglootA35rn0hBsXgaP3-126" edge="1">
          <mxGeometry relative="1" as="geometry">
            <Array as="points">
              <mxPoint x="350" y="460" />
              <mxPoint x="350" y="460" />
            </Array>
          </mxGeometry>
        </mxCell>
        <mxCell id="WglootA35rn0hBsXgaP3-130" value="" style="shape=waypoint;sketch=0;fillStyle=solid;size=6;pointerEvents=1;points=[];fillColor=none;resizable=0;rotatable=0;perimeter=centerPerimeter;snapToPoint=1;fontFamily=Helvetica;fontSize=11;fontColor=default;rounded=0;strokeColor=default;html=1;" parent="1" vertex="1">
          <mxGeometry x="340" y="440" width="40" height="40" as="geometry" />
        </mxCell>
        <mxCell id="WglootA35rn0hBsXgaP3-134" value="" style="verticalLabelPosition=bottom;shadow=0;dashed=0;align=center;html=1;verticalAlign=top;shape=stencil(tVZdb4MgFP01vC4qWp8X1711W9KHPTPESapggK3dvx+CW4ofRK01JoZz4ZxzLxcigJksUUNAFCDZEKwAfAJRVNALyfVXw6VFwjCwY4ZqYqG3w+vRYlIJfiJnmqtuNmUlEVTZ6NliqSGAexA8arB9YYY5Y1qUciadyFVccyPKlKP8srfMjRapiSLCwp3DS+fYjn6cGIielwgdlwuFq4TeZ+gEbkIPybgSzDQyVViYfSB8+hT8i+Wj/iT6Jh77DWq3eBD4C9fcrB41nEz4dRkqyq4Y4nABhUl8YNCgE0nDrOCC+KphGnurevSygbcXJF1RkPvklva6c3lqPYZV1Um2pvAXeFYiG1D8X7532WdBpNLHwDsDK094207a9U7JilaKdzf3Qc9FPMtFQasK84oLPbRfsxjoJMwzhwNXXPpq6dvqVn9yM8zSwX1nUPsLYIBf);pointerEvents=1;rounded=0;strokeColor=default;fontFamily=Times New Roman;fontSize=22;fontColor=default;fillColor=default;flipH=1;" parent="1" vertex="1">
          <mxGeometry x="360" y="470" width="60" height="100" as="geometry" />
        </mxCell>
        <mxCell id="WglootA35rn0hBsXgaP3-135" value="" style="verticalLabelPosition=bottom;shadow=0;dashed=0;align=center;html=1;verticalAlign=top;shape=stencil(tVZdb4MgFP01vC4qWp8X1711W9KHPTPESapggK3dvx+CW4ofRK01JoZz4ZxzLxcigJksUUNAFCDZEKwAfAJRVNALyfVXw6VFwjCwY4ZqYqG3w+vRYlIJfiJnmqtuNmUlEVTZ6NliqSGAexA8arB9YYY5Y1qUciadyFVccyPKlKP8srfMjRapiSLCwp3DS+fYjn6cGIielwgdlwuFq4TeZ+gEbkIPybgSzDQyVViYfSB8+hT8i+Wj/iT6Jh77DWq3eBD4C9fcrB41nEz4dRkqyq4Y4nABhUl8YNCgE0nDrOCC+KphGnurevSygbcXJF1RkPvklva6c3lqPYZV1Um2pvAXeFYiG1D8X7532WdBpNLHwDsDK094207a9U7JilaKdzf3Qc9FPMtFQasK84oLPbRfsxjoJMwzhwNXXPpq6dvqVn9yM8zSwX1nUPsLYIBf);pointerEvents=1;rounded=0;strokeColor=default;fontFamily=Times New Roman;fontSize=22;fontColor=default;fillColor=default;flipH=1;flipV=1;" parent="1" vertex="1">
          <mxGeometry x="360" y="350" width="60" height="100" as="geometry" />
        </mxCell>
        <mxCell id="WglootA35rn0hBsXgaP3-136" value="" style="verticalLabelPosition=bottom;shadow=0;dashed=0;align=center;html=1;verticalAlign=top;shape=stencil(tVZdb4MgFP01vC4qWp8X1711W9KHPTPESapggK3dvx+CW4ofRK01JoZz4ZxzLxcigJksUUNAFCDZEKwAfAJRVNALyfVXw6VFwjCwY4ZqYqG3w+vRYlIJfiJnmqtuNmUlEVTZ6NliqSGAexA8arB9YYY5Y1qUciadyFVccyPKlKP8srfMjRapiSLCwp3DS+fYjn6cGIielwgdlwuFq4TeZ+gEbkIPybgSzDQyVViYfSB8+hT8i+Wj/iT6Jh77DWq3eBD4C9fcrB41nEz4dRkqyq4Y4nABhUl8YNCgE0nDrOCC+KphGnurevSygbcXJF1RkPvklva6c3lqPYZV1Um2pvAXeFYiG1D8X7532WdBpNLHwDsDK094207a9U7JilaKdzf3Qc9FPMtFQasK84oLPbRfsxjoJMwzhwNXXPpq6dvqVn9yM8zSwX1nUPsLYIBf);pointerEvents=1;rounded=0;strokeColor=default;fontFamily=Times New Roman;fontSize=22;fontColor=default;fillColor=default;flipH=1;flipV=1;" parent="1" vertex="1">
          <mxGeometry x="360" y="230" width="60" height="100" as="geometry" />
        </mxCell>
        <mxCell id="WglootA35rn0hBsXgaP3-140" style="edgeStyle=orthogonalEdgeStyle;shape=connector;rounded=0;orthogonalLoop=1;jettySize=auto;html=1;exitX=0;exitY=0.5;exitDx=0;exitDy=0;exitPerimeter=0;entryX=0.5;entryY=0;entryDx=0;entryDy=0;labelBackgroundColor=default;strokeColor=default;fontFamily=Times New Roman;fontSize=22;fontColor=default;endArrow=none;endFill=0;" parent="1" source="WglootA35rn0hBsXgaP3-139" target="WglootA35rn0hBsXgaP3-69" edge="1">
          <mxGeometry relative="1" as="geometry">
            <Array as="points">
              <mxPoint x="280" y="460" />
            </Array>
          </mxGeometry>
        </mxCell>
        <mxCell id="WglootA35rn0hBsXgaP3-139" value="" style="verticalLabelPosition=bottom;shadow=0;dashed=0;align=center;html=1;verticalAlign=top;shape=stencil(tVZNc4MgFPw1XDsqMbbHjk1ubQ859EwRKxMFB0iT/vsi2E7wg1FjHGcc9snuvn3ECYCpLFBNQBQgWROsAHwBUZTTC8n0U8OFRcIwsGuGKmKht9f3g8WkEvxIzjRT7duUFURQZatniyWGAO5A8KzB5oYp5oxpUcqZdCpXdc2NKFOu8s4y11qkIooIC7cOL61ju/pxaiDazxE6zBcKFwl9TNAJ3IYe4mElmGpkLFiYfiJ8/BL8xLJBfxJ9E4/9GjUj7hX+yhU3uwcNxyN+XYaSsiuGTTiDwjTeM2jQkaZhmnNBfGmYg71WHp1u4O2BJAsCuU9vSed0zm+tw7AonXhtCn/AkxpZgeL/43uXOQsilf4ZeN/AylNe9yTFGze+BUdp+3TzBDouHie5yGlZYl5yoZf2aTaDCAbmmsKBSy59WfpG3eiPDsNs7X3vDGr/AhjgFw==);pointerEvents=1;rounded=0;strokeColor=default;fontFamily=Times New Roman;fontSize=22;fontColor=default;fillColor=default;direction=north;flipH=1;" parent="1" vertex="1">
          <mxGeometry x="110" y="400" width="100" height="60" as="geometry" />
        </mxCell>
        <mxCell id="WglootA35rn0hBsXgaP3-141" value="" style="verticalLabelPosition=bottom;shadow=0;dashed=0;align=center;html=1;verticalAlign=top;shape=stencil(tVZNc4MgFPw1XDsqMbbHjk1ubQ859EwRKxMFB0iT/vsi2E7wg1FjHGcc9snuvn3ECYCpLFBNQBQgWROsAHwBUZTTC8n0U8OFRcIwsGuGKmKht9f3g8WkEvxIzjRT7duUFURQZatniyWGAO5A8KzB5oYp5oxpUcqZdCpXdc2NKFOu8s4y11qkIooIC7cOL61ju/pxaiDazxE6zBcKFwl9TNAJ3IYe4mElmGpkLFiYfiJ8/BL8xLJBfxJ9E4/9GjUj7hX+yhU3uwcNxyN+XYaSsiuGTTiDwjTeM2jQkaZhmnNBfGmYg71WHp1u4O2BJAsCuU9vSed0zm+tw7AonXhtCn/AkxpZgeL/43uXOQsilf4ZeN/AylNe9yTFGze+BUdp+3TzBDouHie5yGlZYl5yoZf2aTaDCAbmmsKBSy59WfpG3eiPDsNs7X3vDGr/AhjgFw==);pointerEvents=1;rounded=0;strokeColor=default;fontFamily=Times New Roman;fontSize=22;fontColor=default;fillColor=default;" parent="1" vertex="1">
          <mxGeometry x="860" y="170" width="60" height="100" as="geometry" />
        </mxCell>
        <mxCell id="WglootA35rn0hBsXgaP3-142" value="" style="verticalLabelPosition=bottom;shadow=0;dashed=0;align=center;html=1;verticalAlign=top;shape=stencil(tVZNc4MgFPw1XDsqMbbHjk1ubQ859EwRKxMFB0iT/vsi2E7wg1FjHGcc9snuvn3ECYCpLFBNQBQgWROsAHwBUZTTC8n0U8OFRcIwsGuGKmKht9f3g8WkEvxIzjRT7duUFURQZatniyWGAO5A8KzB5oYp5oxpUcqZdCpXdc2NKFOu8s4y11qkIooIC7cOL61ju/pxaiDazxE6zBcKFwl9TNAJ3IYe4mElmGpkLFiYfiJ8/BL8xLJBfxJ9E4/9GjUj7hX+yhU3uwcNxyN+XYaSsiuGTTiDwjTeM2jQkaZhmnNBfGmYg71WHp1u4O2BJAsCuU9vSed0zm+tw7AonXhtCn/AkxpZgeL/43uXOQsilf4ZeN/AylNe9yTFGze+BUdp+3TzBDouHie5yGlZYl5yoZf2aTaDCAbmmsKBSy59WfpG3eiPDsNs7X3vDGr/AhjgFw==);pointerEvents=1;rounded=0;strokeColor=default;fontFamily=Times New Roman;fontSize=22;fontColor=default;fillColor=default;flipV=1;" parent="1" vertex="1">
          <mxGeometry x="860" y="530" width="60" height="100" as="geometry" />
        </mxCell>
        <mxCell id="WglootA35rn0hBsXgaP3-145" style="edgeStyle=orthogonalEdgeStyle;shape=connector;rounded=0;orthogonalLoop=1;jettySize=auto;html=1;labelBackgroundColor=default;strokeColor=default;fontFamily=Times New Roman;fontSize=22;fontColor=default;endArrow=none;endFill=0;entryX=0.5;entryY=1;entryDx=0;entryDy=0;" parent="1" source="WglootA35rn0hBsXgaP3-143" target="WglootA35rn0hBsXgaP3-74" edge="1">
          <mxGeometry relative="1" as="geometry">
            <mxPoint x="450" y="270" as="targetPoint" />
            <Array as="points">
              <mxPoint x="460" y="400" />
              <mxPoint x="460" y="160" />
              <mxPoint x="440" y="160" />
            </Array>
          </mxGeometry>
        </mxCell>
        <mxCell id="WglootA35rn0hBsXgaP3-143" value="" style="shape=waypoint;sketch=0;fillStyle=solid;size=6;pointerEvents=1;points=[];fillColor=none;resizable=0;rotatable=0;perimeter=centerPerimeter;snapToPoint=1;fontFamily=Helvetica;fontSize=11;fontColor=default;rounded=0;strokeColor=default;html=1;" parent="1" vertex="1">
          <mxGeometry x="460" y="380" width="40" height="40" as="geometry" />
        </mxCell>
        <mxCell id="WglootA35rn0hBsXgaP3-149" style="edgeStyle=orthogonalEdgeStyle;shape=connector;rounded=0;orthogonalLoop=1;jettySize=auto;html=1;entryX=0.997;entryY=0.473;entryDx=0;entryDy=0;entryPerimeter=0;labelBackgroundColor=default;strokeColor=default;fontFamily=Times New Roman;fontSize=22;fontColor=default;endArrow=none;endFill=0;" parent="1" source="WglootA35rn0hBsXgaP3-148" target="WglootA35rn0hBsXgaP3-143" edge="1">
          <mxGeometry relative="1" as="geometry">
            <Array as="points">
              <mxPoint x="510" y="400" />
              <mxPoint x="510" y="400" />
            </Array>
          </mxGeometry>
        </mxCell>
        <mxCell id="WglootA35rn0hBsXgaP3-148" value="" style="shape=waypoint;sketch=0;fillStyle=solid;size=6;pointerEvents=1;points=[];fillColor=none;resizable=0;rotatable=0;perimeter=centerPerimeter;snapToPoint=1;fontFamily=Helvetica;fontSize=11;fontColor=default;rounded=0;strokeColor=default;html=1;" parent="1" vertex="1">
          <mxGeometry x="500" y="380" width="40" height="40" as="geometry" />
        </mxCell>
        <mxCell id="tHTufr_GQCuy8t_JnZXK-2" value="Vmr" style="text;html=1;align=center;verticalAlign=middle;resizable=0;points=[];autosize=1;strokeColor=none;fillColor=none;fontSize=22;fontFamily=BKM-cmr10;" vertex="1" parent="1">
          <mxGeometry x="325" y="150" width="70" height="40" as="geometry" />
        </mxCell>
        <mxCell id="tHTufr_GQCuy8t_JnZXK-3" value="Vml" style="text;html=1;align=center;verticalAlign=middle;resizable=0;points=[];autosize=1;strokeColor=none;fillColor=none;fontSize=22;fontFamily=BKM-cmr10;" vertex="1" parent="1">
          <mxGeometry x="330" y="600" width="60" height="40" as="geometry" />
        </mxCell>
        <mxCell id="tHTufr_GQCuy8t_JnZXK-4" value="Vasl" style="text;html=1;align=center;verticalAlign=middle;resizable=0;points=[];autosize=1;strokeColor=none;fillColor=none;fontSize=22;fontFamily=BKM-cmr10;fontColor=default;" vertex="1" parent="1">
          <mxGeometry x="620" y="530" width="70" height="40" as="geometry" />
        </mxCell>
        <mxCell id="tHTufr_GQCuy8t_JnZXK-5" value="Vasr" style="text;html=1;align=center;verticalAlign=middle;resizable=0;points=[];autosize=1;strokeColor=none;fillColor=none;fontSize=22;fontFamily=BKM-cmr10;fontColor=default;" vertex="1" parent="1">
          <mxGeometry x="610" y="230" width="70" height="40" as="geometry" />
        </mxCell>
      </root>
    </mxGraphModel>
  </diagram>
</mxfile>
